<?xml version="1.0" encoding="UTF-8"?>
<svg width="142px" height="48px" viewBox="0 0 142 48" version="1.1" xmlns="http://www.w3.org/2000/svg" xmlns:xlink="http://www.w3.org/1999/xlink">
    <!-- Generator: Sketch 58 (84663) - https://sketch.com -->
    <title>小工单logo</title>
    <desc>Created with Sketch.</desc>
    <defs>
        <rect id="path-1" x="0" y="0" width="142" height="48"></rect>
    </defs>
    <g id="小工单logo" stroke="none" stroke-width="1" fill="none" fill-rule="evenodd">
        <g id="编组-8">
            <mask id="mask-2" fill="white">
                <use xlink:href="#path-1"></use>
            </mask>
            <use id="蒙版" fill="#FFFFFF" opacity="0" xlink:href="#path-1"></use>
            <g mask="url(#mask-2)">
                <path d="M73.988,11.216 L73.988,30.648 C73.988,31.2640031 73.9366672,31.8146642 73.834,32.3 C73.7313328,32.7853358 73.5400014,33.2286647 73.26,33.63 C72.9799986,34.0313353 72.5926691,34.4139982 72.098,34.778 C71.6033309,35.1420018 70.9640039,35.519998 70.18,35.912 L68.108,32.944 C68.8920039,32.551998 69.4519983,32.160002 69.788,31.768 C70.1240017,31.375998 70.292,30.8720031 70.292,30.256 L70.292,11.216 L73.988,11.216 Z M84.488,30.256 L80.736,31.544 L80.3954062,30.4040933 C80.2326565,29.8668446 80.0547405,29.2887633 79.8616568,28.6698454 L79.714,28.198 C79.3126647,26.9193269 78.8880022,25.6080067 78.44,24.264 L77.7715,22.2724999 C77.5498339,21.6168349 77.3293344,20.9693365 77.11,20.33 L76.5691425,18.7657132 C76.3390478,18.1059051 76.1226677,17.4933362 75.92,16.928 L79.336,15.808 L79.7566564,16.8678441 C80.002385,17.4971134 80.2681652,18.1938295 80.554,18.958 C81.0113356,20.1806728 81.4779976,21.45466 81.954,22.78 C82.4300024,24.10534 82.8873311,25.4213268 83.326,26.728 L84.0277143,28.8399999 C84.190571,29.3359986 84.3439993,29.808 84.488,30.256 Z M67.436,16.816 C67.1933321,17.9920059 66.9040017,19.2099937 66.568,20.47 C66.2319983,21.7300063 65.8586687,22.9853271 65.448,24.236 C65.0373313,25.4866729 64.598669,26.7093274 64.132,27.904 C63.665331,29.0986726 63.1800025,30.2093282 62.676,31.236 L59.148,29.836 C59.6520025,28.827995 60.1326644,27.7453391 60.59,26.588 C61.0473356,25.4306609 61.4673314,24.250006 61.85,23.046 C62.2326686,21.841994 62.5733318,20.6473393 62.872,19.462 C63.1706682,18.2766607 63.4226656,17.1520053 63.628,16.088 L67.436,16.816 Z M102.016,16.144 L102.016,30.816 L112.292,30.816 L112.292,34.428 L87.736,34.428 L87.736,30.816 L98.04,30.816 L98.04,16.144 L89.416,16.144 L89.416,12.392 L110.64,12.392 L110.64,16.144 L102.016,16.144 Z M129.792,32.104 L129.792,35.604 L126.264,35.604 L126.264,32.104 L115.82,32.104 L115.82,28.8 L126.264,28.8 L126.264,27.232 L121.28,27.232 L121.28,28.072 L117.752,28.072 L117.752,13.736 L121.28,13.736 L121.28,14.408 L122.372,14.408 L120.888,11.104 L123.968,10.04 L124.279111,10.6326671 C124.386963,10.8411111 124.498963,11.0604437 124.615111,11.2906656 L125.557,13.1794998 C125.757666,13.5784988 125.965332,13.9879979 126.18,14.408 L129.792,14.408 C130.165335,13.6986631 130.524665,12.975337 130.87,12.238 C131.215335,11.500663 131.518665,10.7866701 131.78,10.096 L135.196,10.908 L134.90928,11.5419202 C134.75696,11.8734394 134.591201,12.2267981 134.412,12.602 L133.544,14.408 L133.544,14.408 L135.028,14.408 C136.148006,14.408 136.969331,14.6646641 137.492,15.178 C138.014669,15.6913359 138.276,16.5079944 138.276,17.628 L138.276,28.072 L134.748,28.072 L134.748,27.232 L129.792,27.232 L129.792,28.8 L140.18,28.8 L140.18,32.104 L129.792,32.104 Z M121.28,24.096 L126.264,24.096 L126.264,22.36 L121.28,22.36 L121.28,24.096 Z M121.148,19.776 L126.132,19.776 L126.132,18.04 L121.148,18.04 L121.148,19.776 Z M129.792,24.096 L134.748,24.096 L134.748,22.36 L129.792,22.36 L129.792,24.096 Z M130.148,19.776 L135.104,19.776 L135.104,18.04 L130.148,18.04 L130.148,19.776 Z" id="小工单" fill="#000000" fill-rule="nonzero"></path>
                <g id="编组-6">
                    <path d="M6.75,0 L41.25,0 C44.9779221,0 48,3.02207794 48,6.75 L48,41.25 C48,44.9779221 44.9779221,48 41.25,48 L6.75,48 C3.02207794,48 0,44.9779221 0,41.25 L0,6.75 C0,3.02207794 3.02207794,0 6.75,0 Z" id="矩形" fill="#0082FF"></path>
                    <path d="M11.8097403,37.1452246 L12.8704004,38.2058847 L8.62775974,42.4485254 L7.56709957,41.3878653 L11.8097403,37.1452246 Z M14.3950781,34.5042187 L16.5447656,36.6244219 L14.390625,40.21875 L14.390625,34.508606 L14.3950781,34.5042187 Z M10.7316153,34.2389746 L11.7922754,35.2996347 L7.54963474,39.5422754 L6.48897457,38.4816153 L10.7316153,34.2389746 Z M29.0478903,6 C29.8931253,6 30.699144,6.35655843 31.2677106,6.98198162 L37.0948202,13.3918022 C37.5968347,13.9440181 37.875,14.6635225 37.875,15.4098206 L37.875,36 C37.875,37.6568542 36.5318542,39 34.875,39 L22.4850469,39 L23.0497969,36.75 L34.125,36.75 C34.9451429,36.75 35.6115529,36.0917914 35.624799,35.2748052 L35.625,35.25 L35.625,15.75 L28.125,15.75 L28.125,8.25 L13.875,8.25 C13.0548571,8.25 12.3884471,8.90820858 12.375201,9.72519476 L12.375,9.75 L12.375,27.4026562 L10.125,28.4967656 L10.125,9 C10.125,7.34314575 11.4681458,6 13.125,6 L29.0478903,6 Z M23.9765625,24 L20.3203125,38.5546875 L20.2799062,38.5318594 L15.2275312,33.4794375 L19.1484375,28.828125 L13.2890625,32.8359375 L7.78125,31.875 L23.9765625,24 Z M30.375,24 L30.3750538,25.6716928 C30.5869446,25.7382473 30.7907306,25.823103 30.9845592,25.9244073 L32.1668155,24.7421943 L33.7578057,26.3331845 L32.5755891,27.5154339 C32.6769019,27.7092779 32.7617635,27.9130809 32.828321,28.1249899 L34.5,28.125 L34.5,30.375 L32.8283062,30.375057 C32.7617524,30.5869449 32.6768979,30.7907281 32.5755953,30.9845543 L33.7578057,32.1668155 L32.1668155,33.7578057 L30.9845514,32.5755968 C30.7907251,32.6768992 30.5869418,32.7617535 30.3750538,32.8283072 L30.375,34.5 L28.125,34.5 L28.1249929,32.8283219 C27.9130845,32.7617649 27.709282,32.6769037 27.5154385,32.5755915 L26.3331845,33.7578057 L24.7421943,32.1668155 L25.9244131,30.9845703 C25.8231085,30.7907426 25.7382524,30.5869577 25.6716972,30.3750679 L24,30.375 L24,28.125 L25.6716825,28.124979 C25.7382367,27.9130823 25.8230931,27.7092907 25.9243988,27.5154569 L24.7421943,26.3331845 L26.3331845,24.7421943 L27.5154307,25.9244126 C27.7092766,25.8230985 27.9130817,25.738236 28.1249929,25.6716781 L28.125,24 L30.375,24 Z M29.25,27.75 C28.4215729,27.75 27.75,28.4215729 27.75,29.25 C27.75,30.0784271 28.4215729,30.75 29.25,30.75 C30.0784271,30.75 30.75,30.0784271 30.75,29.25 C30.75,28.4215729 30.0784271,27.75 29.25,27.75 Z M24.75,16.125 L24.75,18.375 L15.75,18.375 L15.75,16.125 L24.75,16.125 Z M24.75,11.625 L24.75,13.875 L15.75,13.875 L15.75,11.625 L24.75,11.625 Z" id="形状" fill="#FFFFFF"></path>
                </g>
            </g>
        </g>
    </g>
</svg>